<svg width="60" height="60" viewBox="0 0 60 60" fill="none" xmlns="http://www.w3.org/2000/svg">
<path d="M36.2953 45.8578H38.291C42.7676 45.8578 46.3969 42.2285 46.3969 37.752V23.7856C46.3969 20.1832 44.0473 17.1305 40.7988 16.0746C40.5938 16.0078 40.4344 15.8473 40.3652 15.6434L38.9813 11.5453C38.8266 11.086 38.2348 10.9618 37.9078 11.3203L34.1531 15.4325L34.1508 15.4348C34.0149 15.5848 33.8285 15.6797 33.6258 15.6797H26.6508C26.4481 15.6797 26.2617 15.5848 26.1258 15.4348L26.1234 15.4325L22.3688 11.3203C22.0418 10.9618 21.45 11.086 21.2953 11.5453L19.9031 15.6657C19.8352 15.8672 19.677 16.0266 19.4754 16.0946C16.2574 17.1692 13.9383 20.2055 13.9383 23.7856V37.752C13.9383 42.2285 17.5676 45.8578 22.0442 45.8578H31.3828" stroke="white" stroke-width="2" stroke-miterlimit="10"/>
<path d="M36.2953 45.8579V35.6192H38.727L39.6129 31.506H36.2953V29.4657C36.2953 29.0474 36.4055 28.7099 36.627 28.4544C36.8484 28.1989 37.1344 28.0724 37.4859 28.0724H39.5062V23.1938H36.7547C35.066 23.1938 33.7488 23.6099 32.802 24.4431C31.8563 25.2751 31.3828 26.4235 31.3828 27.8849V31.506H29.6484V35.6192H31.3828V45.8579" stroke="white" stroke-width="2" stroke-linecap="round" stroke-linejoin="round"/>
</svg>
