<svg width="60" height="60" viewBox="0 0 60 60" fill="none" xmlns="http://www.w3.org/2000/svg">
<path d="M47.7433 28.7872C47.6625 27.2989 47.4656 25.9278 47.2078 24.6903C46.8937 23.1915 46.4918 21.8884 46.0957 20.8149C45.7371 19.8423 44.9414 19.0993 43.9488 18.8028C43.3125 18.6141 42.634 18.4278 41.9121 18.2485L40.268 13.4415C40.1015 12.954 39.4676 12.8298 39.1289 13.2177L35.7223 17.12C34.1824 16.9407 32.5441 16.8259 30.8156 16.8036C28.7379 16.7766 26.7785 16.8856 24.9609 17.0849L21.4488 13.0583C21.1101 12.6704 20.4762 12.7946 20.3098 13.2821L18.6258 18.2016C17.8582 18.3927 17.1363 18.5895 16.4648 18.7888C15.4406 19.0888 14.6273 19.8704 14.284 20.8829C13.4953 23.2009 12.7043 26.4856 12.7289 30.4501C12.7512 34.2528 13.5152 37.4087 14.284 39.6692C14.6297 40.6794 15.4476 41.4575 16.4719 41.7563C19.9945 42.7829 24.8437 43.7708 30.6363 43.7157C36.0351 43.6665 40.5715 42.7255 43.9394 41.7411C44.939 41.4481 45.7394 40.6993 46.1004 39.722C46.9359 37.4462 47.8137 34.1286 47.7844 30.0798C47.7808 29.6391 47.768 29.2079 47.7433 28.7872ZM34.4812 30.838L27.7406 34.7321C27.293 34.9888 26.734 34.6677 26.734 34.1509V26.3661C26.734 25.8493 27.293 25.5282 27.7406 25.7849L34.4812 29.679C34.9289 29.9356 34.9289 30.5813 34.4812 30.838Z" stroke="white" stroke-width="2" stroke-miterlimit="10"/>
<path d="M34.4812 30.8379L27.7406 34.7321C27.293 34.9887 26.734 34.6676 26.734 34.1508V26.3661C26.734 25.8493 27.293 25.5282 27.7406 25.7848L34.4812 29.679C34.9289 29.9356 34.9289 30.5813 34.4812 30.8379Z" stroke="white" stroke-width="2" stroke-miterlimit="10"/>
<path d="M34.4812 30.8379L27.7406 34.7321C27.293 34.9887 26.734 34.6676 26.734 34.1508V26.3661C26.734 25.8493 27.293 25.5282 27.7406 25.7848L34.4812 29.679C34.9289 29.9356 34.9289 30.5813 34.4812 30.8379Z" stroke="white" stroke-width="2" stroke-miterlimit="10"/>
</svg>
