<svg width="60" height="60" viewBox="0 0 60 60" fill="none" xmlns="http://www.w3.org/2000/svg">
<path d="M46.1625 22.7614V36.7278C46.1625 41.2044 42.5332 44.8337 38.0567 44.8337H21.8098C17.3332 44.8337 13.7039 41.2044 13.7039 36.7278V22.7614C13.7039 19.1813 16.0231 16.145 19.241 15.0704C19.4426 15.0024 19.6008 14.8431 19.6688 14.6415L21.0609 10.5212C21.2156 10.0618 21.8074 9.93758 22.1344 10.2962L25.8891 14.4083L25.8914 14.4106C26.0274 14.5606 26.2137 14.6556 26.4164 14.6556H33.3914C33.5942 14.6556 33.7805 14.5606 33.9164 14.4106L33.9188 14.4083L37.6735 10.2962C38.0004 9.93758 38.5922 10.0618 38.7469 10.5212L40.1309 14.6192C40.2 14.8231 40.3594 14.9837 40.5645 15.0505C43.8129 16.1063 46.1625 19.1591 46.1625 22.7614Z" stroke="white" stroke-width="2" stroke-miterlimit="10"/>
<path d="M29.9684 36.2918C33.3364 36.2918 36.0668 33.5615 36.0668 30.1934C36.0668 26.8253 33.3364 24.095 29.9684 24.095C26.6003 24.095 23.8699 26.8253 23.8699 30.1934C23.8699 33.5615 26.6003 36.2918 29.9684 36.2918Z" stroke="white" stroke-width="2" stroke-miterlimit="10"/>
<path d="M39.2004 23.3402C39.8826 23.3402 40.4356 22.7872 40.4356 22.105C40.4356 21.4229 39.8826 20.8699 39.2004 20.8699C38.5182 20.8699 37.9652 21.4229 37.9652 22.105C37.9652 22.7872 38.5182 23.3402 39.2004 23.3402Z" stroke="white" stroke-width="2" stroke-miterlimit="10"/>
</svg>
