<svg width="41" height="40" viewBox="0 0 41 40" fill="none" xmlns="http://www.w3.org/2000/svg">
<path d="M21.3839 19.1647L21.6634 18.8881C22.2024 18.3491 22.4704 17.6344 22.4704 16.9254C22.4704 16.2135 22.2024 15.5017 21.6634 14.9627C20.5856 13.8848 18.8189 13.8848 17.7381 14.9627L17.4614 15.2423L17.1818 14.9627C16.104 13.8848 14.3373 13.8848 13.2594 14.9627C12.7175 15.5017 12.4495 16.2135 12.4495 16.9254C12.4495 17.6344 12.7175 18.3491 13.2594 18.8881L13.536 19.1647L17.3189 22.9476C17.3976 23.0263 17.5252 23.0263 17.6039 22.9475L21.3839 19.1647Z" stroke="white" stroke-width="2" stroke-miterlimit="10" stroke-linecap="round" stroke-linejoin="round"/>
<path d="M14.4345 18.3201L15.8047 19.6768" stroke="white" stroke-width="2" stroke-miterlimit="10" stroke-linecap="round" stroke-linejoin="round"/>
<path d="M16.4398 20.3085L16.6084 20.4687" stroke="white" stroke-width="2" stroke-miterlimit="10" stroke-linecap="round" stroke-linejoin="round"/>
<path d="M27.7033 16.0333H27.6833L26.5538 16.6429L26.3841 15.9731L27.803 15.2134H28.5529V21.71H27.7033V16.0333Z" fill="white"/>
<path d="M17.6245 27.0436L17.6495 27.0769L20.2745 30.7019C20.3601 30.8141 20.6435 30.8068 20.7245 30.6852L23.3661 27.0852L23.3995 27.0436H33.2328C33.7661 27.0436 34.1995 26.6102 34.1995 26.0769V10.1852C34.1995 9.6519 33.7661 9.21857 33.2328 9.21857H7.76613C7.23279 9.21857 6.79946 9.6519 6.79946 10.1852V26.0769C6.79946 26.6102 7.23279 27.0436 7.76613 27.0436L17.6245 27.0436Z" stroke="white" stroke-width="2" stroke-miterlimit="10" stroke-linecap="round" stroke-linejoin="round"/>
</svg>
