<svg width="60" height="60" viewBox="0 0 60 60" fill="none" xmlns="http://www.w3.org/2000/svg">
<g clip-path="url(#clip0_5_119)">
<path d="M42.9375 36.5391C40.5881 35.2233 38.853 33.0333 38.1094 30.4453C37.6036 28.6851 36.5389 27.1373 35.076 26.0356C33.613 24.9338 31.8314 24.3379 30 24.3379C28.1686 24.3379 26.3869 24.9338 24.924 26.0356C23.4611 27.1373 22.3964 28.6851 21.8906 30.4453C21.147 33.0333 19.4119 35.2233 17.0625 36.5391C15.6007 37.3355 14.4453 38.5956 13.7786 40.1209C13.1118 41.6463 12.9714 43.3501 13.3796 44.964C13.7877 46.5779 14.7213 48.0101 16.033 49.035C17.3448 50.0599 18.9603 50.6193 20.625 50.625C21.6307 50.6256 22.6265 50.4264 23.5547 50.0391C25.5979 49.1919 27.7881 48.7558 30 48.7558C32.2119 48.7558 34.4021 49.1919 36.4453 50.0391C37.3734 50.4264 38.3693 50.6256 39.375 50.625C41.0397 50.6193 42.6552 50.0599 43.9669 49.035C45.2787 48.0101 46.2122 46.5779 46.6204 44.964C47.0286 43.3501 46.8882 41.6463 46.2214 40.1209C45.5546 38.5956 44.3993 37.3355 42.9375 36.5391Z" stroke="#E25300" stroke-width="3" stroke-linecap="round" stroke-linejoin="round"/>
<path d="M48.75 30C51.8566 30 54.375 27.4816 54.375 24.375C54.375 21.2684 51.8566 18.75 48.75 18.75C45.6434 18.75 43.125 21.2684 43.125 24.375C43.125 27.4816 45.6434 30 48.75 30Z" fill="#E25300"/>
<path d="M11.25 30C14.3566 30 16.875 27.4816 16.875 24.375C16.875 21.2684 14.3566 18.75 11.25 18.75C8.1434 18.75 5.625 21.2684 5.625 24.375C5.625 27.4816 8.1434 30 11.25 30Z" fill="#E25300"/>
<path d="M22.5 18.75C25.6066 18.75 28.125 16.2316 28.125 13.125C28.125 10.0184 25.6066 7.5 22.5 7.5C19.3934 7.5 16.875 10.0184 16.875 13.125C16.875 16.2316 19.3934 18.75 22.5 18.75Z" fill="#E25300"/>
<path d="M37.5 18.75C40.6066 18.75 43.125 16.2316 43.125 13.125C43.125 10.0184 40.6066 7.5 37.5 7.5C34.3934 7.5 31.875 10.0184 31.875 13.125C31.875 16.2316 34.3934 18.75 37.5 18.75Z" fill="#E25300"/>
</g>
<defs>
<clipPath id="clip0_5_119">
<rect width="60" height="60" fill="white"/>
</clipPath>
</defs>
</svg>
