<svg width="36" height="36" viewBox="0 0 36 36" fill="none" xmlns="http://www.w3.org/2000/svg">
<path d="M18 0C14.4399 0 10.9598 1.05568 7.99974 3.03355C5.03966 5.01141 2.73255 7.82263 1.37018 11.1117C0.00779915 14.4008 -0.348661 18.02 0.345873 21.5116C1.04041 25.0033 2.75474 28.2106 5.27208 30.7279C7.78943 33.2453 10.9967 34.9596 14.4884 35.6541C17.98 36.3487 21.5992 35.9922 24.8883 34.6298C28.1774 33.2674 30.9886 30.9603 32.9665 28.0003C34.9443 25.0402 36 21.5601 36 18C35.9948 13.2277 34.0967 8.65236 30.7222 5.27783C27.3476 1.90331 22.7723 0.00521234 18 0ZM18 33C15.0333 33 12.1332 32.1203 9.66645 30.472C7.19972 28.8238 5.27713 26.4811 4.14181 23.7402C3.0065 20.9994 2.70945 17.9834 3.28823 15.0736C3.86701 12.1639 5.29562 9.49118 7.3934 7.3934C9.49119 5.29561 12.1639 3.867 15.0736 3.28822C17.9834 2.70944 20.9994 3.00649 23.7403 4.14181C26.4811 5.27712 28.8238 7.19971 30.472 9.66644C32.1203 12.1332 33 15.0333 33 18C32.9955 21.9769 31.4137 25.7896 28.6017 28.6017C25.7896 31.4137 21.9769 32.9955 18 33Z" fill="#E25300"/>
<path d="M23.9613 16.0312L17.1855 11.3016C16.8257 11.0506 16.4039 10.9031 15.9661 10.875C15.5283 10.8469 15.0911 10.9394 14.7021 11.1423C14.3132 11.3453 13.9873 11.6509 13.7598 12.0261C13.5324 12.4013 13.4121 12.8316 13.4121 13.2703V22.7297C13.4118 23.1686 13.5319 23.5991 13.7592 23.9745C13.9866 24.3499 14.3125 24.6557 14.7016 24.8587C15.0907 25.0617 15.5281 25.1541 15.966 25.1258C16.404 25.0976 16.8258 24.9497 17.1855 24.6984L23.9613 19.9687V19.9675C24.2783 19.7463 24.5371 19.4519 24.7158 19.1092C24.8945 18.7666 24.9879 18.3858 24.9879 17.9993C24.9879 17.6129 24.8945 17.2321 24.7158 16.8894C24.5371 16.5468 24.2783 16.2524 23.9613 16.0312Z" fill="#E25300"/>
</svg>
